<svg width="18" height="18" viewBox="0 0 18 18" fill="none" xmlns="http://www.w3.org/2000/svg">
<path d="M14.2498 8.25H5.87232L9.53232 4.59C9.82482 4.2975 9.82482 3.8175 9.53232 3.525C9.46294 3.45547 9.38052 3.40031 9.28979 3.36267C9.19906 3.32504 9.1018 3.30566 9.00357 3.30566C8.90534 3.30566 8.80808 3.32504 8.71735 3.36267C8.62662 3.40031 8.54421 3.45547 8.47482 3.525L3.53232 8.4675C3.46279 8.53688 3.40763 8.6193 3.37 8.71003C3.33236 8.80076 3.31299 8.89802 3.31299 8.99625C3.31299 9.09447 3.33236 9.19174 3.37 9.28247C3.40763 9.3732 3.46279 9.45561 3.53232 9.525L8.47482 14.4675C8.54426 14.5369 8.62669 14.592 8.71741 14.6296C8.80814 14.6672 8.90537 14.6865 9.00357 14.6865C9.10177 14.6865 9.19901 14.6672 9.28973 14.6296C9.38045 14.592 9.46288 14.5369 9.53232 14.4675C9.60176 14.3981 9.65684 14.3156 9.69442 14.2249C9.732 14.1342 9.75134 14.0369 9.75134 13.9387C9.75134 13.8405 9.732 13.7433 9.69442 13.6526C9.65684 13.5619 9.60176 13.4794 9.53232 13.41L5.87232 9.75H14.2498C14.6623 9.75 14.9998 9.4125 14.9998 9C14.9998 8.5875 14.6623 8.25 14.2498 8.25Z" fill="#141B41"/>
</svg>
