<svg width="218" height="169" viewBox="0 0 218 169" fill="none" xmlns="http://www.w3.org/2000/svg">
<g clip-path="url(#clip0_10_105)">
<path d="M192.07 157.169C192.054 157.099 190.518 150.121 193.656 144.324C196.793 138.528 203.491 135.972 203.559 135.947L203.865 135.832L203.937 136.15C203.953 136.22 205.489 143.199 202.352 148.995C199.214 154.791 192.516 157.347 192.449 157.372L192.142 157.487L192.07 157.169ZM203.445 136.608C202.103 137.183 196.808 139.699 194.158 144.594C191.508 149.49 192.307 155.28 192.562 156.711C193.903 156.138 199.196 153.626 201.849 148.725C204.499 143.83 203.7 138.04 203.445 136.608Z" fill="#3F3D56"/>
<path d="M199.954 146.962C194.315 150.341 192.143 157.053 192.143 157.053C192.143 157.053 199.114 158.286 204.753 154.907C210.392 151.528 212.563 144.816 212.563 144.816C212.563 144.816 205.593 143.583 199.954 146.962Z" fill="#D0CDE1"/>
<path d="M77.4404 126.628C76.7698 126.628 76.0925 126.618 75.4276 126.597L75.4427 126.116C76.3974 126.146 77.3717 126.154 78.3309 126.141L78.3375 126.622C78.0389 126.626 77.7399 126.628 77.4404 126.628ZM81.2458 126.517L81.2174 126.036C82.1735 125.98 83.1419 125.901 84.0957 125.801L84.1462 126.28C83.1851 126.38 82.2094 126.46 81.2458 126.517ZM72.5219 126.442C71.5578 126.368 70.5835 126.272 69.626 126.155L69.685 125.677C70.6352 125.793 71.6019 125.889 72.5588 125.962L72.5219 126.442ZM87.0325 125.912L86.96 125.436C87.91 125.293 88.8673 125.126 89.8046 124.941L89.8987 125.413C88.9542 125.6 87.9898 125.768 87.0325 125.912ZM66.7466 125.736C65.7942 125.575 64.8327 125.391 63.8891 125.186L63.9917 124.716C64.9281 124.918 65.8821 125.102 66.8274 125.261L66.7466 125.736ZM92.7395 124.782L92.6234 124.315C93.5559 124.085 94.4936 123.831 95.4105 123.561L95.5479 124.022C94.6239 124.295 93.6791 124.551 92.7395 124.782ZM61.0603 124.506C60.126 124.259 59.1858 123.987 58.2658 123.697L58.4114 123.238C59.3245 123.525 60.2575 123.795 61.1845 124.041L61.0603 124.506ZM98.3181 123.134L98.1594 122.679C99.0644 122.366 99.9744 122.027 100.865 121.672L101.044 122.119C100.147 122.477 99.2301 122.818 98.3181 123.134ZM55.5046 122.757C54.5972 122.425 53.6842 122.066 52.7911 121.691L52.9787 121.247C53.865 121.619 54.7709 121.975 55.6715 122.305L55.5046 122.757ZM103.715 120.983L103.515 120.545C104.384 120.151 105.257 119.732 106.111 119.297L106.331 119.726C105.47 120.164 104.59 120.587 103.715 120.983ZM108.886 118.35L108.647 117.932C109.48 117.458 110.312 116.96 111.119 116.451L111.378 116.858C110.564 117.371 109.726 117.873 108.886 118.35ZM113.798 115.254L113.522 114.86C114.306 114.314 115.089 113.742 115.849 113.16L116.144 113.542C115.378 114.128 114.589 114.704 113.798 115.254ZM40.1263 114.576C39.3462 114.012 38.5668 113.421 37.8098 112.819L38.1114 112.442C38.8627 113.04 39.6361 113.627 40.4103 114.187L40.1263 114.576ZM118.409 111.725L118.097 111.356C118.829 110.742 119.557 110.101 120.261 109.452L120.589 109.806C119.88 110.46 119.146 111.105 118.409 111.725ZM35.5766 110.958C34.85 110.324 34.1281 109.665 33.4311 108.998L33.7658 108.651C34.4576 109.312 35.1739 109.967 35.8949 110.596L35.5766 110.958ZM122.68 107.789L122.336 107.451C123.01 106.771 123.677 106.066 124.318 105.358L124.677 105.68C124.032 106.394 123.36 107.104 122.68 107.789ZM31.378 106.944C30.7114 106.246 30.053 105.524 29.4212 104.799L29.7863 104.483C30.4133 105.203 31.0666 105.919 31.7282 106.612L31.378 106.944ZM126.576 103.482L126.203 103.177C126.812 102.438 127.412 101.676 127.986 100.911L128.373 101.2C127.794 101.97 127.19 102.738 126.576 103.482ZM27.5647 102.568C26.9661 101.815 26.3766 101.037 25.8126 100.256L26.2049 99.9748C26.7646 100.749 27.3496 101.521 27.9438 102.27L27.5647 102.568ZM130.063 98.8374L129.664 98.567C130.203 97.7764 130.731 96.9627 131.233 96.1481L131.645 96.4001C131.138 97.2208 130.606 98.0409 130.063 98.8374ZM24.1687 97.8674C23.6421 97.0631 23.1266 96.2356 22.6365 95.4071L23.0528 95.1626C23.5393 95.9847 24.0508 96.8061 24.5735 97.6041L24.1687 97.8674ZM133.112 93.8926L132.689 93.6599C133.153 92.8234 133.604 91.9643 134.03 91.1065L134.463 91.3199C134.034 92.1842 133.58 93.0498 133.112 93.8926H133.112ZM135.694 88.6876L135.251 88.4943C135.636 87.6181 136.006 86.7208 136.35 85.8274L136.801 86C136.455 86.9004 136.082 87.8046 135.694 88.6876H135.694ZM18.7416 87.6487C18.371 86.7628 18.0161 85.8565 17.6869 84.9547L18.1412 84.7902C18.4679 85.6852 18.82 86.5844 19.1876 87.4634L18.7416 87.6487ZM137.784 83.2634L137.325 83.112C137.627 82.2067 137.911 81.2813 138.171 80.3614L138.636 80.4917C138.375 81.4186 138.088 82.3513 137.784 83.2634ZM16.7558 82.2083C16.4682 81.2907 16.198 80.3534 15.9526 79.422L16.4202 79.2997C16.6636 80.2241 16.9319 81.1544 17.2172 82.0649L16.7558 82.2083ZM139.359 77.6837L138.888 77.5746C139.105 76.6467 139.303 75.699 139.477 74.7584L139.952 74.8454C139.777 75.7935 139.577 76.7482 139.359 77.6837ZM15.2795 76.6018C15.0779 75.6614 14.8955 74.7034 14.7374 73.7538L15.2141 73.6748C15.3712 74.6173 15.5522 75.568 15.7523 76.5011L15.2795 76.6018ZM140.413 71.9835L139.933 71.9182C140.064 70.9752 140.173 70.0137 140.26 69.0601L140.741 69.1034C140.654 70.0644 140.543 71.0333 140.413 71.9835ZM14.3269 70.8842C14.2129 69.9311 14.1193 68.9604 14.0486 67.9991L14.5308 67.9639C14.6008 68.9181 14.6938 69.8813 14.807 70.8273L14.3269 70.8842ZM140.938 66.2117L140.455 66.1901C140.498 65.236 140.52 64.2684 140.52 63.3141H141.004C141.004 64.2757 140.982 65.2506 140.938 66.2117ZM13.9022 65.1039C13.8857 64.5136 13.8773 63.9113 13.8772 63.3141C13.8772 62.9436 13.8804 62.5738 13.8867 62.2047L14.3701 62.2132C14.3637 62.5795 14.3605 62.9464 14.3605 63.3141C14.3607 63.9068 14.369 64.5047 14.3853 65.0908L13.9022 65.1039ZM14.4848 59.3388L14.0024 59.3087C14.0627 58.3467 14.146 57.375 14.2497 56.4207L14.7303 56.4725C14.6272 57.4197 14.5448 58.3839 14.4848 59.3388H14.4848ZM140.208 56.4014C140.112 55.4522 139.979 54.9894 139.839 54.0443L140.317 53.974C140.458 54.9263 140.579 55.6532 140.676 56.6096L140.208 56.4014ZM15.1066 53.6206L14.6289 53.547C14.777 52.5945 14.9491 51.6345 15.1403 50.6933L15.6141 50.7887C15.4243 51.7227 15.2535 52.6755 15.1066 53.6206H15.1066ZM139.351 51.2094C139.166 50.2702 138.958 49.3248 138.732 48.3994L139.202 48.2856C139.43 49.218 139.639 50.1708 139.825 51.117L139.351 51.2094ZM16.2515 47.9832L15.7827 47.8661C16.0174 46.9336 16.2774 45.9933 16.5554 45.0713L17.0182 45.2098C16.7425 46.1248 16.4845 47.0578 16.2515 47.9832ZM137.985 45.6207C137.715 44.7039 137.421 43.7818 137.109 42.8795L137.566 42.7229C137.88 43.6321 138.177 44.5616 138.449 45.4853L137.985 45.6207ZM17.9155 42.467L17.4595 42.3074C17.7807 41.3972 18.1276 40.4827 18.4903 39.5892L18.9385 39.7698C18.5785 40.6563 18.2342 41.5639 17.9155 42.467ZM136.108 40.1813C135.755 39.2952 135.377 38.406 134.985 37.5381L135.426 37.3404C135.821 38.2149 136.202 39.111 136.557 40.0038L136.108 40.1813ZM20.085 37.1233L19.6458 36.9223C20.0495 36.0465 20.4791 35.1683 20.9229 34.3121L21.3524 34.5329C20.912 35.3826 20.4856 36.2541 20.085 37.1233ZM133.742 34.9481C133.309 34.0981 132.851 33.2463 132.38 32.4168L132.8 32.1796C133.275 33.0156 133.737 33.8738 134.173 34.7304L133.742 34.9481ZM22.738 32.0039L22.319 31.7637C22.8012 30.9297 23.3097 30.0949 23.8305 29.2826L24.2379 29.5417C23.7211 30.3478 23.2164 31.1763 22.738 32.0039ZM130.902 29.9492C130.391 29.1393 129.857 28.3325 129.313 27.551L129.71 27.2766C130.258 28.0641 130.797 28.8771 131.311 29.6932L130.902 29.9492ZM25.8492 27.151L25.4541 26.8736C26.0114 26.0864 26.594 25.3017 27.1861 24.5414L27.568 24.8365C26.9805 25.5911 26.4021 26.3698 25.8492 27.151ZM127.614 25.227C127.032 24.467 126.425 23.7115 125.811 22.9816L126.181 22.6723C126.8 23.4079 127.411 24.169 127.998 24.9347L127.614 25.227ZM29.3907 22.6032L29.0227 22.291C29.6481 21.5593 30.2998 20.8311 30.9599 20.1266L31.3132 20.455C30.6582 21.1543 30.0114 21.8771 29.3907 22.6032ZM123.906 20.8197C123.257 20.1157 122.584 19.418 121.905 18.7461L122.246 18.4045C122.93 19.0817 123.608 19.7846 124.262 20.4939L123.906 20.8197ZM33.3313 18.3969L32.9933 18.0528C33.6845 17.3792 34.3998 16.7133 35.119 16.0736L35.441 16.4328C34.7271 17.0676 34.0173 17.7285 33.3313 18.3969V18.3969ZM119.811 16.7648C119.099 16.1219 118.364 15.4879 117.627 14.8803L117.935 14.5093C118.678 15.1215 119.418 15.7604 120.135 16.4082L119.811 16.7648ZM37.6377 14.5664L37.3326 14.1931C38.0801 13.5867 38.8527 12.9886 39.629 12.4154L39.917 12.8021C39.1465 13.3711 38.3797 13.9646 37.6377 14.5664H37.6377ZM42.2738 11.1438L42.004 10.7443C42.8041 10.2081 43.6278 9.683 44.4524 9.1833L44.7035 9.59472C43.8853 10.0905 43.0679 10.6117 42.2738 11.1438H42.2738ZM47.2012 8.15829L46.9692 7.73582C47.8156 7.27444 48.6836 6.82682 49.5489 6.40517L49.7613 6.83775C48.9026 7.2561 48.0413 7.70032 47.2012 8.15829ZM105.537 7.04276C104.677 6.61594 103.796 6.20358 102.918 5.8172L103.114 5.37687C103.998 5.76619 104.886 6.18172 105.752 6.61182L105.537 7.04276ZM52.3785 5.63583L52.1864 5.19408C53.071 4.81216 53.9759 4.44588 54.8759 4.10535L55.0475 4.55556C54.1543 4.89339 53.2564 5.25685 52.3785 5.63583ZM100.245 4.71272C99.3497 4.36702 98.4337 4.03717 97.522 3.73249L97.6759 3.27593C98.5945 3.58308 99.5175 3.91539 100.419 4.26392L100.245 4.71272ZM57.7702 3.59648L57.6196 3.13899C58.5382 2.83901 59.4754 2.55654 60.4051 2.29969L60.5344 2.76354C59.6117 3.0185 58.6817 3.29874 57.7702 3.59648H57.7702ZM94.7634 2.88062C93.8415 2.61884 92.9012 2.37504 91.9686 2.15605L92.0796 1.68751C93.0194 1.90814 93.9668 2.15382 94.896 2.41748L94.7634 2.88062ZM63.3343 2.05837L63.2266 1.589C64.1684 1.37471 65.1277 1.17946 66.0778 1.00878L66.1637 1.4825C65.2207 1.65201 64.2688 1.84573 63.3343 2.05837ZM89.1432 1.56079C88.202 1.38481 87.2433 1.22825 86.2935 1.09542L86.3605 0.61864C87.3176 0.752529 88.2839 0.910278 89.2325 1.08754L89.1432 1.56079ZM69.0168 1.03688L68.9528 0.559633C69.9097 0.432446 70.8828 0.325478 71.845 0.242018L71.8871 0.721614C70.9321 0.804601 69.9666 0.91062 69.0168 1.03688ZM83.4252 0.76064C82.4731 0.671302 81.504 0.602419 80.5445 0.556224L80.5681 0.0752178C81.5346 0.121885 82.5111 0.191237 83.4705 0.28129L83.4252 0.76064ZM74.7693 0.536946L74.749 0.055951C75.6374 0.019041 76.5428 0.000235923 77.4404 0L77.6592 0.000350807L77.6578 0.481827L77.4404 0.481476C76.5497 0.4817 75.6509 0.500388 74.7693 0.536946Z" fill="#3F3D56"/>
<path d="M218 157.032H40.8448V157.513H218V157.032Z" fill="#3F3D56"/>
<path d="M144.53 76.0793L146.947 113.394C146.947 113.394 152.748 128.079 152.506 142.042C152.506 142.042 150.331 147.579 152.023 148.542C153.714 149.504 154.681 150.227 153.714 150.949C152.748 151.671 152.023 153.356 152.748 153.838C153.473 154.319 153.714 155.041 153.473 155.041H146.222C146.222 155.041 147.672 151.43 145.497 150.467C143.322 149.504 144.53 147.097 144.53 147.097L128.337 99.9124L115.528 143.245C115.528 143.245 117.703 144.69 116.011 145.412C114.32 146.134 113.595 144.69 114.32 146.134C115.045 147.579 114.078 148.301 114.078 148.542C114.078 148.782 106.827 147.819 106.827 147.819C106.827 147.819 110.453 144.69 108.761 143.967C107.069 143.245 106.344 142.523 106.827 142.042C107.311 141.56 109.244 136.986 109.244 136.986C109.244 136.986 110.211 119.653 110.453 118.931C110.694 118.209 110.453 114.838 110.453 113.153C110.453 111.468 110.211 104.727 110.936 103.042C111.661 101.357 112.386 80.6533 116.253 78.246C120.12 75.8386 144.53 76.0793 144.53 76.0793Z" fill="#2F2E41"/>
<path d="M113.836 147.338C113.836 147.338 118.67 157.208 115.286 158.412C111.903 159.616 107.553 158.653 106.586 160.097C105.619 161.541 94.9849 163.227 94.7432 159.616C94.5015 156.004 106.344 149.264 106.344 149.264L107.887 146.789L113.836 147.338Z" fill="#2F2E41"/>
<path d="M152.989 154.56C152.989 154.56 157.823 164.43 154.439 165.634C151.056 166.838 146.706 165.875 145.739 167.319C144.772 168.764 134.138 170.449 133.896 166.838C133.655 163.227 145.497 156.486 145.497 156.486L147.04 154.012L152.989 154.56Z" fill="#2F2E41"/>
<path d="M130.633 30.7002C135.038 30.7002 138.609 27.1434 138.609 22.7558C138.609 18.3683 135.038 14.8115 130.633 14.8115C126.229 14.8115 122.658 18.3683 122.658 22.7558C122.658 27.1434 126.229 30.7002 130.633 30.7002Z" fill="#A0616A"/>
<path d="M136.071 26.9687L135.105 33.9501L127.854 39.4871L125.921 36.839V27.6909L136.071 26.9687Z" fill="#A0616A"/>
<path d="M124.712 35.8761C124.712 35.8761 132.204 36.5983 136.071 33.9502L143.805 79.4497C143.805 79.4497 116.495 81.6163 115.286 80.1719V65.9683L120.12 42.8575L124.712 35.8761Z" fill="#9448BC"/>
<path d="M135.406 31.7748L138.005 33.9502C138.005 33.9502 148.639 35.6353 147.914 38.5242L145.014 72.709L145.98 84.2644C145.98 84.2644 137.763 82.0978 131.479 84.2644C125.196 86.4311 130.188 37.7049 130.188 37.7049C130.188 37.7049 135.949 32.4883 135.406 31.7748Z" fill="#D0CDE1"/>
<path d="M125.921 34.4098C125.921 34.4098 118.187 39.9686 117.22 43.5797C116.253 47.1907 113.111 85.2274 113.111 85.2274C113.111 85.2274 114.561 84.5052 115.286 85.7089C116.011 86.9126 127.129 36.3139 125.921 34.4098Z" fill="#D0CDE1"/>
<path d="M122.662 22.4097C122.662 22.4097 121.798 21.1197 122.13 19.7304C122.329 18.9416 122.407 18.1276 122.363 17.3157C122.363 17.3157 123.06 15.0664 123.758 13.8094C124.455 12.5525 124.123 12.0232 126.315 11.6263C128.506 11.2294 127.61 8.38465 133.388 11.4609C133.583 11.732 133.854 11.9395 134.167 12.0573C134.48 12.175 134.822 12.1977 135.148 12.1225C136.343 11.8909 136.775 13.5448 136.775 13.5448C136.775 13.5448 137.572 13.0817 137.871 13.7433C138.17 14.4048 140.301 13.3462 140.301 17.8117C140.301 22.2773 137.876 26.2661 137.876 26.2661C137.876 26.2661 138.054 18.7546 134.102 17.9938C130.15 17.233 125.899 15.0168 124.87 17.8615C124.314 19.4581 123.573 20.9845 122.662 22.4097Z" fill="#2F2E41"/>
<path d="M137.962 24.1957C138.393 24.1957 138.742 23.7322 138.742 23.1604C138.742 22.5887 138.393 22.1252 137.962 22.1252C137.532 22.1252 137.183 22.5887 137.183 23.1604C137.183 23.7322 137.532 24.1957 137.962 24.1957Z" fill="#A0616A"/>
<path d="M105.206 97.6073C103.293 96.4617 100.987 96.5492 100.111 96.6367C100.445 97.4485 101.446 99.5193 103.359 100.665C105.276 101.814 107.579 101.724 108.454 101.637C108.12 100.825 107.119 98.7536 105.206 97.6073Z" fill="#90FCF9"/>
<path d="M114.192 120.339H102.24C101.526 120.339 100.842 120.621 100.338 121.123C99.8336 121.626 99.5502 122.307 99.5502 123.017C99.5502 123.728 99.8336 124.409 100.338 124.912C100.842 125.414 101.526 125.696 102.24 125.696H114.192C114.905 125.696 115.589 125.413 116.092 124.911C116.596 124.409 116.879 123.728 116.879 123.017C116.879 122.307 116.596 121.626 116.092 121.124C115.589 120.622 114.905 120.339 114.192 120.339Z" fill="#D0CDE1"/>
<path d="M168.319 92.062H101.303C100.524 92.062 99.7516 92.215 99.0314 92.5121C98.3112 92.8093 97.6567 93.2449 97.1055 93.794C96.5542 94.343 96.117 94.9949 95.8186 95.7123C95.5203 96.4297 95.3668 97.1986 95.3668 97.9752V130.499C95.3668 132.067 95.9922 133.571 97.1055 134.68C98.2188 135.789 99.7287 136.412 101.303 136.412H168.319C169.098 136.412 169.87 136.259 170.59 135.962C171.311 135.664 171.965 135.229 172.516 134.68C173.068 134.131 173.505 133.479 173.803 132.761C174.102 132.044 174.255 131.275 174.255 130.499V97.9752C174.255 97.1986 174.102 96.4297 173.803 95.7123C173.505 94.9949 173.068 94.343 172.516 93.794C171.965 93.2449 171.311 92.8093 170.59 92.5122C169.87 92.215 169.098 92.062 168.319 92.062ZM99.6451 96.0957C99.7774 96.0719 102.915 95.5399 105.514 97.0974C108.112 98.6545 109.111 101.666 109.152 101.793L109.257 102.118L108.92 102.177C108.439 102.252 107.952 102.288 107.465 102.284C106.285 102.284 104.575 102.089 103.051 101.175C100.452 99.6184 99.4541 96.6073 99.4129 96.48L99.3079 96.1553L99.6451 96.0957ZM114.192 126.292H102.24C101.368 126.292 100.532 125.947 99.9154 125.333C99.2989 124.719 98.9526 123.886 98.9526 123.017C98.9526 122.149 99.2989 121.316 99.9154 120.702C100.532 120.088 101.368 119.743 102.24 119.743H114.192C115.064 119.743 115.9 120.088 116.517 120.702C117.133 121.316 117.479 122.149 117.479 123.017C117.479 123.886 117.133 124.719 116.517 125.333C115.9 125.947 115.064 126.292 114.192 126.292ZM168.578 125.696C168.575 126.643 168.196 127.55 167.524 128.219C166.852 128.888 165.942 129.265 164.992 129.268H156.027C155.077 129.265 154.166 128.888 153.495 128.219C152.823 127.55 152.444 126.643 152.441 125.696V120.339C152.444 119.392 152.823 118.485 153.495 117.816C154.166 117.147 155.077 116.77 156.027 116.767H164.992C165.942 116.77 166.852 117.147 167.524 117.816C168.196 118.485 168.575 119.392 168.578 120.339L168.578 125.696Z" fill="#63B4D1"/>
<path d="M158.866 124.655H154.981C154.704 124.655 154.438 124.764 154.242 124.96C154.046 125.155 153.935 125.42 153.935 125.696C153.935 125.973 154.046 126.238 154.242 126.433C154.438 126.628 154.704 126.738 154.981 126.738H158.866C159.143 126.738 159.409 126.628 159.605 126.433C159.802 126.238 159.912 125.973 159.912 125.696C159.912 125.42 159.802 125.155 159.605 124.96C159.409 124.764 159.143 124.655 158.866 124.655ZM158.866 126.143H154.981C154.922 126.143 154.864 126.131 154.809 126.109C154.755 126.087 154.705 126.054 154.664 126.012C154.622 125.971 154.589 125.922 154.566 125.867C154.544 125.813 154.532 125.755 154.532 125.696C154.532 125.638 154.544 125.579 154.566 125.525C154.589 125.471 154.622 125.422 154.664 125.38C154.705 125.339 154.755 125.306 154.809 125.284C154.864 125.261 154.922 125.25 154.981 125.25H158.866C158.925 125.25 158.983 125.261 159.038 125.284C159.092 125.306 159.142 125.339 159.183 125.38C159.225 125.422 159.258 125.471 159.281 125.525C159.303 125.579 159.315 125.638 159.315 125.696C159.315 125.755 159.303 125.813 159.281 125.867C159.258 125.922 159.225 125.971 159.183 126.012C159.142 126.054 159.092 126.087 159.038 126.109C158.983 126.131 158.925 126.143 158.866 126.143Z" fill="#9448BC"/>
<path d="M166.038 124.655H162.153C162.015 124.654 161.879 124.681 161.752 124.733C161.625 124.786 161.51 124.862 161.412 124.959C161.315 125.056 161.238 125.171 161.185 125.297C161.133 125.424 161.105 125.559 161.105 125.696C161.105 125.833 161.133 125.969 161.185 126.095C161.238 126.222 161.315 126.337 161.412 126.434C161.51 126.53 161.625 126.607 161.752 126.659C161.879 126.712 162.015 126.738 162.153 126.738H166.038C166.315 126.738 166.581 126.628 166.777 126.433C166.973 126.238 167.083 125.973 167.083 125.696C167.083 125.42 166.973 125.155 166.777 124.96C166.581 124.764 166.315 124.655 166.038 124.655ZM166.038 126.143H162.153C162.094 126.143 162.036 126.132 161.981 126.109C161.927 126.087 161.877 126.054 161.835 126.012C161.794 125.971 161.76 125.922 161.738 125.867C161.715 125.813 161.704 125.755 161.704 125.696C161.704 125.638 161.715 125.579 161.738 125.525C161.76 125.471 161.794 125.422 161.835 125.38C161.877 125.339 161.927 125.306 161.981 125.284C162.036 125.261 162.094 125.25 162.153 125.25H166.038C166.156 125.25 166.27 125.297 166.354 125.381C166.438 125.465 166.485 125.578 166.485 125.696C166.485 125.815 166.438 125.928 166.354 126.012C166.27 126.095 166.156 126.143 166.038 126.143Z" fill="#9448BC"/>
<path d="M158.866 121.976H154.981C154.704 121.976 154.438 122.085 154.242 122.281C154.046 122.476 153.935 122.741 153.935 123.017C153.935 123.294 154.046 123.559 154.242 123.754C154.438 123.95 154.704 124.059 154.981 124.059H158.866C159.003 124.059 159.14 124.033 159.267 123.98C159.394 123.928 159.509 123.851 159.606 123.755C159.704 123.658 159.781 123.543 159.834 123.417C159.886 123.29 159.913 123.154 159.913 123.017C159.913 122.881 159.886 122.745 159.834 122.618C159.781 122.492 159.704 122.377 159.606 122.28C159.509 122.184 159.394 122.107 159.267 122.055C159.14 122.002 159.003 121.976 158.866 121.976ZM158.866 123.464H154.981C154.862 123.464 154.748 123.417 154.664 123.333C154.58 123.249 154.533 123.136 154.533 123.017C154.533 122.899 154.58 122.786 154.664 122.702C154.748 122.618 154.862 122.571 154.981 122.571H158.866C158.985 122.571 159.099 122.618 159.183 122.702C159.267 122.786 159.314 122.899 159.314 123.017C159.314 123.136 159.267 123.249 159.183 123.333C159.099 123.417 158.985 123.464 158.866 123.464Z" fill="#9448BC"/>
<path d="M166.038 121.976H162.153C162.015 121.976 161.879 122.002 161.752 122.055C161.625 122.107 161.51 122.184 161.412 122.28C161.315 122.377 161.238 122.492 161.185 122.618C161.133 122.745 161.105 122.881 161.105 123.017C161.105 123.154 161.133 123.29 161.185 123.417C161.238 123.543 161.315 123.658 161.412 123.755C161.51 123.851 161.625 123.928 161.752 123.98C161.879 124.033 162.015 124.059 162.153 124.059H166.038C166.315 124.059 166.581 123.95 166.777 123.754C166.973 123.559 167.083 123.294 167.083 123.017C167.083 122.741 166.973 122.476 166.777 122.281C166.581 122.085 166.315 121.976 166.038 121.976ZM166.038 123.464H162.153C162.034 123.464 161.92 123.417 161.836 123.333C161.752 123.249 161.705 123.136 161.705 123.017C161.705 122.899 161.752 122.786 161.836 122.702C161.92 122.618 162.034 122.571 162.153 122.571H166.038C166.156 122.571 166.27 122.618 166.354 122.702C166.439 122.786 166.486 122.899 166.486 123.017C166.486 123.136 166.439 123.249 166.354 123.333C166.27 123.417 166.156 123.464 166.038 123.464Z" fill="#9448BC"/>
<path d="M158.866 119.297H154.981C154.704 119.297 154.438 119.407 154.242 119.602C154.046 119.797 153.935 120.062 153.935 120.339C153.935 120.615 154.046 120.88 154.242 121.075C154.438 121.271 154.704 121.38 154.981 121.38H158.866C159.143 121.38 159.409 121.271 159.605 121.075C159.802 120.88 159.912 120.615 159.912 120.339C159.912 120.062 159.802 119.797 159.605 119.602C159.409 119.407 159.143 119.297 158.866 119.297ZM158.866 120.785H154.981C154.862 120.785 154.748 120.738 154.664 120.654C154.58 120.571 154.533 120.457 154.533 120.339C154.533 120.22 154.58 120.107 154.664 120.023C154.748 119.939 154.862 119.892 154.981 119.892H158.866C158.985 119.892 159.099 119.939 159.183 120.023C159.267 120.107 159.314 120.22 159.314 120.339C159.314 120.457 159.267 120.571 159.183 120.654C159.099 120.738 158.985 120.785 158.866 120.785Z" fill="#9448BC"/>
<path d="M166.038 119.297H162.153C162.015 119.297 161.879 119.323 161.752 119.376C161.625 119.428 161.51 119.505 161.412 119.601C161.315 119.698 161.238 119.813 161.185 119.94C161.133 120.066 161.105 120.202 161.105 120.339C161.105 120.476 161.133 120.611 161.185 120.738C161.238 120.864 161.315 120.979 161.412 121.076C161.51 121.173 161.625 121.249 161.752 121.302C161.879 121.354 162.015 121.381 162.153 121.38H166.038C166.315 121.38 166.58 121.27 166.776 121.075C166.972 120.879 167.082 120.615 167.082 120.339C167.082 120.063 166.972 119.798 166.776 119.603C166.58 119.407 166.315 119.297 166.038 119.297ZM166.038 120.785H162.153C162.034 120.785 161.92 120.738 161.836 120.654C161.752 120.571 161.705 120.457 161.705 120.339C161.705 120.22 161.752 120.107 161.836 120.023C161.92 119.939 162.034 119.892 162.153 119.892H166.038C166.156 119.892 166.27 119.939 166.354 120.023C166.439 120.107 166.486 120.22 166.486 120.339C166.486 120.457 166.439 120.571 166.354 120.654C166.27 120.738 166.156 120.785 166.038 120.785Z" fill="#9448BC"/>
<path d="M147.189 84.7459L145.456 90.3771C145.456 90.3771 145.014 100.875 139.213 99.4309C133.413 97.9865 140.905 85.7089 140.905 85.7089L142.597 83.0607L147.189 84.7459Z" fill="#A0616A"/>
<path d="M114.32 84.7459L112.587 90.3771C112.587 90.3771 112.145 100.875 106.344 99.4309C100.544 97.9865 108.036 85.7089 108.036 85.7089L109.728 83.0607L114.32 84.7459Z" fill="#A0616A"/>
<path d="M145.98 36.839C145.98 36.839 149.847 35.8761 151.056 42.376C152.264 48.8759 153.714 67.4128 153.714 67.4128L147.914 86.9126C147.914 86.9126 142.114 83.783 140.905 84.2644L145.47 67.3355L141.63 50.0796C141.63 50.0796 145.014 36.839 145.98 36.839Z" fill="#D0CDE1"/>
<path opacity="0.15" d="M140.358 50.4089L145.433 67.2606L140.358 84.353L143.258 67.2606L140.358 50.4089Z" fill="black"/>
<path d="M117.22 50.0796L108.519 84.2645C108.519 84.2645 113.109 85.7732 114.8 86.9769L117.22 50.0796Z" fill="#D0CDE1"/>
<path d="M25.9479 135.989C39.2958 135.989 50.1164 125.211 50.1164 111.915C50.1164 98.6198 39.2958 87.8416 25.9479 87.8416C12.5999 87.8416 1.77933 98.6198 1.77933 111.915C1.77933 125.211 12.5999 135.989 25.9479 135.989Z" fill="#3F3D56"/>
<path opacity="0.1" d="M25.9479 132.619C37.4271 132.619 46.7328 123.35 46.7328 111.915C46.7328 100.481 37.4271 91.2119 25.9479 91.2119C14.4687 91.2119 5.16293 100.481 5.16293 111.915C5.16293 123.35 14.4687 132.619 25.9479 132.619Z" fill="black"/>
<path d="M24.9519 124.132V121.119C23.4227 121.089 21.8407 120.552 20.9179 119.806L21.5506 117.807C22.6472 118.626 23.9771 119.075 25.3474 119.09C27.2194 119.09 28.485 117.867 28.485 116.166C28.485 114.525 27.4567 113.511 25.5056 112.616C22.8162 111.423 21.1552 110.05 21.1552 107.455C21.1552 104.978 22.7108 103.099 25.1365 102.651V99.6378H26.7712V102.532C27.9901 102.548 29.1791 102.911 30.1988 103.576L29.5396 105.545C28.5616 104.878 27.4027 104.524 26.2175 104.531C24.1874 104.531 23.4227 105.903 23.4227 107.097C23.4227 108.648 24.3982 109.424 26.6921 110.498C29.4078 111.751 30.7789 113.302 30.7789 115.958C30.7789 118.314 29.3287 120.522 26.613 121.029V124.132H24.9519Z" fill="#90FCF9"/>
<path d="M51.479 160.884C34.4137 163.419 17.0653 163.419 0 160.884V155.106C17.0834 157.385 34.3956 157.385 51.479 155.106V160.884Z" fill="#3F3D56"/>
<path d="M51.479 151.976C34.4137 154.511 17.0653 154.511 0 151.976V146.199C17.0834 148.477 34.3956 148.477 51.479 146.199V151.976Z" fill="#3F3D56"/>
<path d="M51.479 143.069C34.4137 145.604 17.0653 145.604 0 143.069V137.291C17.0834 139.57 34.3956 139.57 51.479 137.291V143.069Z" fill="#3F3D56"/>
</g>
<defs>
<clipPath id="clip0_10_105">
<rect width="218" height="169" fill="white"/>
</clipPath>
</defs>
</svg>
